<svg id="visual" viewBox="0 0 960 300" width="960" height="300" xmlns="http://www.w3.org/2000/svg" xmlns:xlink="http://www.w3.org/1999/xlink" version="1.1"><rect x="0" y="0" width="960" height="300" fill="#202731"></rect><path d="M0 165L22.8 172.8C45.7 180.7 91.3 196.3 137 207C182.7 217.7 228.3 223.3 274 214.8C319.7 206.3 365.3 183.7 411.2 175.5C457 167.3 503 173.7 548.8 187.8C594.7 202 640.3 224 686 227.5C731.7 231 777.3 216 823 208.3C868.7 200.7 914.3 200.3 937.2 200.2L960 200L960 0L937.2 0C914.3 0 868.7 0 823 0C777.3 0 731.7 0 686 0C640.3 0 594.7 0 548.8 0C503 0 457 0 411.2 0C365.3 0 319.7 0 274 0C228.3 0 182.7 0 137 0C91.3 0 45.7 0 22.8 0L0 0Z" fill="#ff6f61"></path><path d="M0 199L22.8 194.2C45.7 189.3 91.3 179.7 137 171C182.7 162.3 228.3 154.7 274 160.5C319.7 166.3 365.3 185.7 411.2 192.3C457 199 503 193 548.8 188.2C594.7 183.3 640.3 179.7 686 175.7C731.7 171.7 777.3 167.3 823 164.8C868.7 162.3 914.3 161.7 937.2 161.3L960 161L960 0L937.2 0C914.3 0 868.7 0 823 0C777.3 0 731.7 0 686 0C640.3 0 594.7 0 548.8 0C503 0 457 0 411.2 0C365.3 0 319.7 0 274 0C228.3 0 182.7 0 137 0C91.3 0 45.7 0 22.8 0L0 0Z" fill="#f76455"></path><path d="M0 144L22.8 139.8C45.7 135.7 91.3 127.3 137 125C182.7 122.7 228.3 126.3 274 125.5C319.7 124.7 365.3 119.3 411.2 114C457 108.7 503 103.3 548.8 102.2C594.7 101 640.3 104 686 109.2C731.7 114.3 777.3 121.7 823 125.2C868.7 128.7 914.3 128.3 937.2 128.2L960 128L960 0L937.2 0C914.3 0 868.7 0 823 0C777.3 0 731.7 0 686 0C640.3 0 594.7 0 548.8 0C503 0 457 0 411.2 0C365.3 0 319.7 0 274 0C228.3 0 182.7 0 137 0C91.3 0 45.7 0 22.8 0L0 0Z" fill="#ee5849"></path><path d="M0 69L22.8 72.8C45.7 76.7 91.3 84.3 137 89.8C182.7 95.3 228.3 98.7 274 94.3C319.7 90 365.3 78 411.2 72.5C457 67 503 68 548.8 73.3C594.7 78.7 640.3 88.3 686 93.5C731.7 98.7 777.3 99.3 823 94C868.7 88.7 914.3 77.3 937.2 71.7L960 66L960 0L937.2 0C914.3 0 868.7 0 823 0C777.3 0 731.7 0 686 0C640.3 0 594.7 0 548.8 0C503 0 457 0 411.2 0C365.3 0 319.7 0 274 0C228.3 0 182.7 0 137 0C91.3 0 45.7 0 22.8 0L0 0Z" fill="#e64c3d"></path><path d="M0 60L22.8 59C45.7 58 91.3 56 137 54C182.7 52 228.3 50 274 47.7C319.7 45.3 365.3 42.7 411.2 42.8C457 43 503 46 548.8 46.8C594.7 47.7 640.3 46.3 686 44.3C731.7 42.3 777.3 39.7 823 43.3C868.7 47 914.3 57 937.2 62L960 67L960 0L937.2 0C914.3 0 868.7 0 823 0C777.3 0 731.7 0 686 0C640.3 0 594.7 0 548.8 0C503 0 457 0 411.2 0C365.3 0 319.7 0 274 0C228.3 0 182.7 0 137 0C91.3 0 45.7 0 22.8 0L0 0Z" fill="#dd3f31"></path></svg>